<?xml version="1.0" encoding="UTF-8"?>
<svg xmlns="http://www.w3.org/2000/svg" xmlns:xlink="http://www.w3.org/1999/xlink" version="1.1" viewBox="0 0 358.1 235.4">
  <defs>
    <style>
      .cls-1 {
        stroke: #ffd600;
        stroke-width: .4px;
      }

      .cls-1, .cls-2 {
        fill: none;
      }

      .cls-3 {
        fill: #fff;
      }

      .cls-4 {
        fill: #1d5da8;
      }

      .cls-2 {
        stroke: #1d5da8;
        stroke-width: .3px;
      }

      .cls-5 {
        fill: url(#Naamloos_verloop);
        stroke: #ffd500;
      }

      .cls-6 {
        fill: #feffff;
      }
    </style>
    <radialGradient id="Naamloos_verloop" data-name="Naamloos verloop" cx="163.9" cy="156" fx="163.9" fy="156" r="57.4" gradientTransform="translate(0 235.9) scale(1 -1)" gradientUnits="userSpaceOnUse">
      <stop offset="0" stop-color="#ffd600"/>
      <stop offset="0" stop-color="#f2cf09"/>
      <stop offset=".2" stop-color="#d2be21"/>
      <stop offset=".4" stop-color="#9fa248"/>
      <stop offset=".7" stop-color="#587c7d"/>
      <stop offset=".9" stop-color="#1f5ea9"/>
      <stop offset="1" stop-color="#34669a"/>
    </radialGradient>
  </defs>
  <!-- Generator: Adobe Illustrator 28.7.1, SVG Export Plug-In . SVG Version: 1.2.0 Build 142)  -->
  <g>
    <g id="Laag_1">
      <circle class="cls-5" cx="163.9" cy="79.9" r="57.4"/>
      <path class="cls-4" d="M92.8,168.5c0,4.8-2.3,8.6-7,11.6-4.2,2.7-8.9,3.9-14.1,3.7-6.7-.3-12-1.6-15.8-4.1-4.2-2.7-6.3-6.6-6.3-11.6v-26.9h14.5v24.2c0,4.3,2.4,6.5,7.3,6.6,2.1,0,3.8-.6,5-1.9,1.3-1.3,1.9-2.9,1.9-4.8v-24h14.4v27.1h0Z"/>
      <path class="cls-1" d="M92.8,168.5c0,4.8-2.3,8.6-7,11.6-4.2,2.7-8.9,3.9-14.1,3.7-6.7-.3-12-1.6-15.8-4.1-4.2-2.7-6.3-6.6-6.3-11.6v-26.9h14.5v24.2c0,4.3,2.4,6.5,7.3,6.6,2.1,0,3.8-.6,5-1.9,1.3-1.3,1.9-2.9,1.9-4.8v-24h14.4v27.1h0Z"/>
      <path class="cls-4" d="M144.4,182.6h-14.5v-23.8c0-4.8-2.2-7.1-6.7-7-2,0-3.7.8-5.1,2.2-1.4,1.4-2.1,3.1-2.1,5.1v23.5h-14.7v-41.3h14.8v5.5l2.5-2.5c2.6-2.7,6-4,10.2-4s1.6,0,2.4.1c4,.3,7.2,2,9.6,5,2.3,2.8,3.5,6.3,3.5,10.3v26.9Z"/>
      <path class="cls-1" d="M144.4,182.6h-14.5v-23.8c0-4.8-2.2-7.1-6.7-7-2,0-3.7.8-5.1,2.2-1.4,1.4-2.1,3.1-2.1,5.1v23.5h-14.7v-41.3h14.8v5.5l2.5-2.5c2.6-2.7,6-4,10.2-4s1.6,0,2.4.1c4,.3,7.2,2,9.6,5,2.3,2.8,3.5,6.3,3.5,10.3v26.9Z"/>
      <rect class="cls-4" x="155.8" y="141.4" width="14.7" height="41.2"/>
      <rect class="cls-1" x="155.8" y="141.4" width="14.7" height="41.2"/>
      <path class="cls-4" d="M227.1,212.5h-14.3v-34.3c-3.5,3.3-7.7,5.1-12.4,5.3-5.6.3-10.4-1.7-14.4-5.9-3.9-4.1-6-9-6.3-14.8-.3-5.9,1.5-11.2,5.4-15.8,4-4.7,8.8-7.1,14.5-7.1s1.2,0,1.8.1c4.4.4,8.1,2.4,11.4,5.8v-4.4h14.3v71.1h0ZM213,162.1c.2-2.6-.7-4.9-2.5-6.9s-4-3-6.6-3c-2.5,0-4.6.8-6.5,2.5-1.8,1.7-2.8,3.8-2.9,6.2-.2,2.6.7,4.9,2.5,6.9,1.8,2,4,3,6.6,3,2.5,0,4.6-.8,6.5-2.5,1.9-1.7,2.8-3.8,3-6.2"/>
      <path class="cls-1" d="M227.1,212.5h-14.3v-34.3c-3.5,3.3-7.7,5.1-12.4,5.3-5.6.3-10.4-1.7-14.4-5.9-3.9-4.1-6-9-6.3-14.8-.3-5.9,1.5-11.2,5.4-15.8,4-4.7,8.8-7.1,14.5-7.1s1.2,0,1.8.1c4.4.4,8.1,2.4,11.4,5.8v-4.4h14.3v71.1h0ZM213,162.1c.2-2.6-.7-4.9-2.5-6.9s-4-3-6.6-3c-2.5,0-4.6.8-6.5,2.5-1.8,1.7-2.8,3.8-2.9,6.2-.2,2.6.7,4.9,2.5,6.9,1.8,2,4,3,6.6,3,2.5,0,4.6-.8,6.5-2.5,1.9-1.7,2.8-3.8,3-6.2h0Z"/>
      <path class="cls-4" d="M280.2,168.5c0,4.8-2.3,8.6-7,11.6-4.2,2.7-8.9,3.9-14.1,3.7-6.7-.3-11.9-1.6-15.8-4.1-4.2-2.7-6.3-6.6-6.3-11.6v-26.9h14.5v24.2c0,4.3,2.4,6.5,7.3,6.6,2.1,0,3.8-.6,5-1.9,1.3-1.3,1.9-2.9,1.9-4.8v-24h14.4v27.1h0Z"/>
      <path class="cls-1" d="M280.2,168.5c0,4.8-2.3,8.6-7,11.6-4.2,2.7-8.9,3.9-14.1,3.7-6.7-.3-11.9-1.6-15.8-4.1-4.2-2.7-6.3-6.6-6.3-11.6v-26.9h14.5v24.2c0,4.3,2.4,6.5,7.3,6.6,2.1,0,3.8-.6,5-1.9,1.3-1.3,1.9-2.9,1.9-4.8v-24h14.4v27.1h0Z"/>
      <path class="cls-4" d="M333.1,164.7h-30c-.1,2.4.5,4.6,2,6.3,1.6,1.9,3.7,2.9,6.4,2.9s5.9-1.3,7.6-3.9h13.5l-1.2,3c-1.4,3.5-3.9,6.3-7.5,8.2-3.6,1.9-7.9,2.9-13,2.9s-12-2.1-16.2-6.2-6.4-9.4-6.4-15.8,2.2-11.2,6.5-15.5c4.4-4.3,9.7-6.4,16-6.4s10.4,1.6,14.7,4.9c4.7,3.6,7.1,8.1,7.3,13.5l.2,6.1h0ZM319.7,156.1c-1.4-4.2-4.2-6.2-8.3-6.2s-7,2.1-8.1,6.2h16.4Z"/>
      <path class="cls-1" d="M333.1,164.7h-30c-.1,2.4.5,4.6,2,6.3,1.6,1.9,3.7,2.9,6.4,2.9s5.9-1.3,7.6-3.9h13.5l-1.2,3c-1.4,3.5-3.9,6.3-7.5,8.2-3.6,1.9-7.9,2.9-13,2.9s-12-2.1-16.2-6.2-6.4-9.4-6.4-15.8,2.2-11.2,6.5-15.5c4.4-4.3,9.7-6.4,16-6.4s10.4,1.6,14.7,4.9c4.7,3.6,7.1,8.1,7.3,13.5l.2,6.1h0ZM319.7,156.1c-1.4-4.2-4.2-6.2-8.3-6.2s-7,2.1-8.1,6.2h16.4Z"/>
      <path class="cls-6" d="M103.8,127.6s65.1-61.9,81.1-50.8c12.7,8.8,1.1,38.1,1,38.3l-9.4-1.6s9.2-21,2.2-26.8c-11.7-9.6-74.8,40.9-74.8,40.9"/>
      <path class="cls-6" d="M129.7,54.5s-.8-7.5,6.2-10c11.8-4.2,46.5,23,51,17.4,2-5.1-.3-12.2-.3-12.2l6.9-.6s5.3,21.9-2.7,22.9c-11.9,1.5-43.9-25.8-53.1-24.2-7.5,1.3-8,6.8-8,6.8"/>
      <path class="cls-3" d="M166.3,33.5l9.5-3c2,3.4.7,16.9-1.7,18.8l-5.1-2.6c2.6-4.8-2.7-13.2-2.7-13.2"/>
      <g>
        <path class="cls-2" d="M103.8,127.6s65.1-61.9,81.1-50.8c12.7,8.8,1.1,38.1,1,38.3l-9.4-1.6s9.2-21,2.2-26.8c-11.7-9.6-74.8,40.9-74.8,40.9h0Z"/>
        <path class="cls-2" d="M129.7,54.5s-.8-7.5,6.2-10c11.8-4.2,46.5,23,51,17.4,2-5.1-.3-12.2-.3-12.2l6.9-.6s5.3,21.9-2.7,22.9c-11.9,1.5-43.9-25.8-53.1-24.2-7.5,1.3-8,6.8-8,6.8h0Z"/>
        <path class="cls-2" d="M166.3,33.5l9.5-3c2,3.4.7,16.9-1.7,18.8l-5.1-2.6c2.6-4.8-2.7-13.2-2.7-13.2h0Z"/>
      </g>
      <g>
        <path class="cls-4" d="M109.9,192.1h1c.3-.1.5-.1.6-.1.2,0,.3.1.3.3s-.1.3-.4.3h-.1l-.5.3-.7-.2-.9.5-.4-.2c-.2,0-.4-.1-.6-.1s-.3,0-.5,0-.4,0-.5,0h-.5c0,0-.8.2-.8.2h-.5c0,0-1.7,0-1.7,0h-.4s-.1.2-.1.2l-.6-.2-.4.2s-.4,0-.8,0h-.5c-.3-.1-.5,0-.7,0s-.6.1-1.2.2l-.3.3h-.2c0,0-.1.2-.1.5s.2.9.6,1.7l-.3.8.3.2-.3.5c.2,0,.3.2.3.4l-.2.7v1.5c-.1,0,0,.6,0,.6l1.3.2,1-.3.3.2s.3,0,.8,0,.4,0,.6-.3l.7-.2.8.3c.6-.1.9-.2,1-.2.1,0,.3,0,.6-.1l.5.2.6-.2.3.2c.6,0,.9,0,1,0,0,0,.2,0,.3,0s.2,0,.3,0,.2,0,.3,0c.1,0,.3,0,.4-.2h.9c0-.1.4,0,.4,0,0,0,.2,0,.3,0h.4c0,.1.2.1.2.1v.2c-.3,0-.7.2-1.1.4h-.5l-.3.2h-.8c0,0-.7.2-.7.2-.5.1-.9.2-1.1.2l-.6-.2v.2c-.1,0-1.3-.1-1.3-.1l-.4.2h-.7c0,0-.5,0-.5,0-.4,0-.6.1-.9.1h-.3c-.2,0-.3,0-.6.2l-.4-.3h-.2s-.5,0-1.1.3h-.7c0-.1-.3,0-.3,0h-.5c-.1-.1-.3.6-.5,2,0,.4,0,.8,0,1.1.1.3.2.5.1.6l-.4,1.2.2.5-.3.5v.6c.1,0,0,.3,0,.3,0,0,0,.1,0,.3,0,.3,0,.8-.3,1.6-.2.7-.4,1.5-.5,2.2l-.4-.2h-.3v-.4c0,0,0-.3,0-.3l.2-.2v-.5s.1-.4.3-.8l-.3-.2v-.4l-.2-.2.3-.6h-.3c0-.3.1-.5.2-.8,0-.2.1-.3.1-.4h0c0,0-.1-.2-.1-.2v-.8c0,0,.1-.6.1-.6v-1.4c-.1,0,.1-1.4.1-1.4l-.2-.6v-.7c0-.2,0-.3-.3-.4l-1,.4-.7-.4h-.7c0,.1-.1.1-.2.1-.2,0-.3-.2-.3-.5s0-.6.2-.7.4-.2.7-.2.6,0,.9,0h1.1c0,.1.3.1.3.1.3,0,.5-.2.6-.6l-.2-.5v-1.7h-.2v-2c.1,0-.3-1.1-.3-1.1v-.7l-1.1-.5-.8.6-.3-.5c-.2,0-.3-.2-.4-.3.1-.1.2-.5.2-.9.4,0,.7,0,.9-.3.3-.2.5-.3.6-.3h1c0,.1.3.1.7,0h1.8c0-.1,1.2,0,1.2,0h1.3c0,0,.2-.2.3-.2s.2,0,.2,0c0,0,0,0,.2,0,.1,0,.2,0,.2,0h0s.5,0,1.4-.2v.2s.2-.2.3-.2.3,0,.4.3h.3c0-.1,1-.2,1-.2h0l2.2.3c.3-.1.7-.1,1-.1s.3,0,.4.1"/>
        <path class="cls-4" d="M119.1,187.6c0,.2-.3.4-.6.6v.2l-.3.3c-.1.1-.2.2-.3.2s-.1,0-.2,0l-1,1.2-.3.4-.9.3-.5.7-.4.2s-.4.3-.8.7h-.2v-.6l.8-.4c.1-.6.3-.9.5-1,.2,0,.3-.1.3-.1h0c0-.1.2-.3.2-.3h0v-.2h.2v-.3c-.1,0,.4,0,.4,0v-.5h.3c0,0,.2-.3.2-.3h.3c0-.1.3-.6.3-.6,0,0,.2,0,.2-.2h.2v-.4c.3-.2.4-.5.5-.7.6.2.9.5,1.1,1M122.8,206.2v.4c0,0-.4.3-.4.3v.5c-.1,0-.7.1-.7.1-.1.5-.3.8-.5.9l-.5.2-.4.4s-.3.3-.6.7h-.3c-.2.2-.4.4-.8.4-.3.3-.4.5-.5.6-.2.1-.4.2-.7.3-.3,0-.5,0-.5.1v.2h-.7l-.3.3-.9-.7-.5-1.2v-1.9c0,0-.2-.4-.2-.4l.3-3,.2-.2v-1.9c-.1-.2,0-.5,0-.6,0-.2.1-.5.2-.8h.1c0-.4,0-.8-.3-1.1v-.5c.1,0,.1-.7.1-.7l.2-.2c0-.2,0-.4-.1-.6,0-.2,0-.3,0-.4,0-.2,0-.3.1-.3h0c-.2-.3-.3-.6-.3-.7,0-.2,0-.3.3-.3s.1,0,.3.1c.1,0,.2.1.3.1s0,0,.2,0c0-.2,0-.3.3-.3s.2,0,.2,0,0,.3.1.7l.4.2-.3.4-.4,2.4.3.6c0,.3-.1.5-.3.7v.5c-.1,0,0,.4,0,.4l-.4,1.5v1.4c-.1,0-.1.9-.1.9l-.3.6v.5c0,0,0,.8,0,.8,0,.7,0,1.2.3,1.7v.2l.3.2h.4c0-.1.4,0,.4,0l.5-.3s.3-.2.6-.3l.3-.3h0c0,.1.2-.2.2-.2h.4c.3-.3.6-.5.9-.6,0-.2.3-.3.5-.3l.2-.3h.4v-.4c-.1,0,0,0,0,0v-.2c0,0,.9-.4.9-.4v-.5h.7s0,.2.1.3"/>
        <path class="cls-4" d="M128.5,197.2h2.5c0,.1,2.4,0,2.4,0h2.2c.3,0,.4.1.4.3s-.2.4-.6.5c0,0-.2,0-.3,0s-.3,0-.5.2h-.5c0-.1-1-.1-1-.1-.5.3-.9.4-1.4.4h-.7c0-.1-.3.2-.3.2h-.3v-.2l-.6.3h-.3v.3c-.3,0-.7-.1-1.2-.1,0,.1-.1.2-.2.2s-.1,0-.2-.1h-.5c0,0-.3.4-.3.4v1.8c-.1,0,0,1.1,0,1.1v1.4c-.1,0-.1,1.6-.1,1.6v.7c.1,0,.1.7.1.7l.4.9v.2c0,.4.3.8.7,1.2v.3c.1,0,.8.1.8.1l.5.5,1.4.3,1.8-.4.5.2,1.3-.6h.5c.2.2.3.4.3.5s-.2.4-.5.6h-.3c0-.1-.6.4-.6.4h-1.2c0,.1-.4.4-.4.4l-.4-.3c-.4.2-.8.3-1.3.3h-.7c0-.1-.4-.1-.4-.1l-1.3-.8-.6-.9-.4-.5-.7-1.8-.3-1.6.2-.7-.3-.3v-.4c.1,0,0-.7,0-.7l.4-.3-.2-.3v-.4c0,0,0-.5,0-.5v-.7c0,0,0-.3,0-.3h.2v-1.4c0-.3-.2-.5-.3-.5s-.1,0-.2.1l-.4-.2h-.6c0,.1-.6-.3-.6-.3h-.3c-.3,0-.4-.2-.4-.5v-.6l-.2-.2v-.3c.1,0,.7,0,.7,0h.4c0,0,.6.1.6.1h1.6v-.8c0,0,0-.8,0-.8l-.3-.6.3-.2s0-.2,0-.3c0-.2-.1-.3-.3-.4v-1.4c0,0-.3-.5-.3-.5v-.3c-.2,0-.3-.1-.3-.3l.3-1c.2-.3.3-.4.3-.5.7.4,1.1.6,1.1.6h0v.4c0,.3.1.6.1.8h0c0,.3-.1.5-.1.6s0,.2.1.3v.7l-.3.5.2.9v1.1c-.1,0,0,.2,0,.2l-.2.3.3.9h.7l.5-.3h0Z"/>
        <path class="cls-4" d="M159.4,205.5c0,.2-.1.4-.5.6h0c0,.1-.2.5-.5.9s-.5.7-.5.9h-.4c0,.6-.2.9-.7,1,0,.1,0,.2-.2.2h0c0,.2-.2.3-.4.3l-.2.4h-.5c0,.1-.4.4-.4.4,0,0-.1,0-.2,0h-.8c0,.1-.3.1-.3.1h-.4c0-.1-.3-.1-.3-.1l-.4-.6h-.2s-.1-.2-.1-.4c-.4-.4-.6-.8-.6-1v-.3l-.3-.5v-.2h.2c0-.1-.1-.6-.1-.6l-.3-.7v-1c0,0-.3-.6-.3-.6v-.9c-.3-1.8-.5-2.9-.5-3.3h0c0-.3,0-.5,0-.6s0-.2,0-.2c-.3-.4-.4-.8-.4-1l-.2-.2-.8.8-.4.5-1.3,1.6-.5.9c-.2.4-.3.7-.4.9-.1.2-.3.5-.7.8v.3c.1,0-.1.7-.1.7h-.3v.3h-.2l-.7.8c0,.4-.2.6-.5.7-.1.1-.2.4-.3.7s-.2.5-.4.5h-.1c-.2.5-.5.8-.6,1.1-.2.2-.5.5-.8.7,0,.4-.2.7-.5.7v.2c0,.2-.1.3-.2.5-.1.1-.4.3-.9.4-.2,0-.3-.2-.4-.6s-.3-.6-.4-.7v-.2c-.1,0,.2-.5.2-.5v-.6c.1,0,0-.3,0-.3v-.5l-.3-.8.3-.5v-.5c0-.3.1-.8.1-1.5v-.2s0-.2-.2-.4c.2-.1.3-.3.3-.5v-.6c0,0,.1-1.4.1-1.4v-.3c-.1,0-.1-.6-.1-.6v-.3c-.1,0,0-1.2,0-1.2v-.4c0,0,0-.7,0-.7v-.9c-.1,0,.1-.5.1-.5.4.1.7.2.7.3,0,0,0,.2,0,.3v.8l.3.5v.7c-.1,0,0,1.5,0,1.5l-.3.8v.9c.1,0,.1.5.1.5l-.3.5.2.8s-.2.5-.3,1l.2.4c-.2.7-.3,1.2-.3,1.4v1.5c.1,0,.6-.2.6-.2h.4l.2-.8c.3,0,.5-.2.5-.4,0-.3.2-.4.5-.4,0-.3.1-.5.3-.6.1,0,.2-.2.3-.5.3-.3.5-.5.6-.8v-.5h0s.2,0,.3-.3c.1-.2.3-.3.5-.3,0-.3.2-.5.3-.7l.5-.6.5-1c0-.2,0-.3,0-.4,0,0,0-.1.1-.1.5-.3.7-.6.7-.9v-.5c.4-.1.5-.3.5-.4s0-.1,0-.2c0,0,0-.1,0-.2,0-.1,0-.2.1-.2s.2,0,.3.1c.2-.7.5-1,.8-1s.2,0,.3,0c0-.3.1-.6.3-.8,0-.1.3-.3.9-.5l.2-.3h.1c.2.3.4.5.5.5v.3c0,0,.2,0,.2,0v.7c0,0,.5.3.5.3l-.2.6.3,1.2v1.1l.3,1.3v1.3c.1,0,.5,1.2.5,1.2v1.2c0,0,.1.1.3.3.1.2.2.5.3.8h.2v.7l.3.4v.3c0,0,.2.1.2.1v.2c.2.1.4.2.6.2s.4,0,.5-.1c0,0,.1,0,.2,0,.1,0,.2,0,.3-.3.3,0,.5-.1.5-.3h0c0,0,.3-.3.7-.5.1-.1.3-.3.4-.3h0c0,0,0-.2.1-.3,0,0,.2-.2.3-.3s.3-.3.3-.4l.2-.4c.2-.2.4-.6.7-1.1l.5-.3h.3v.5c.1,0,.1,0,.1,0Z"/>
        <path class="cls-4" d="M171.1,207.8c.2.3.3.5.3.6s-.1.3-.3.6-.4.6-.5,1h-.3l-.4.8h-.5c0,0-1,.7-1,.7l-.2.4h-.3l-.3.3h-.5v.2h-.4c-.3,0-.5,0-.7.3l-.2-.2c-.3.1-.5.2-.6.2-.3,0-.5,0-.7-.2-.1,0-.3,0-.5,0l-.2-.2c-.7,0-1.1-.2-1.3-.6v-.5l-.6-.3v-.4c-.1,0-.3-.3-.5-.5v-.3l-.4-1.8v-1.2c0,0,.2-.7.2-.7v-.8l.2-.7v-.5c0,0,.1-.3.2-.4s.1-.3.2-.5c0-.2,0-.5-.1-.9l.3-.3-.3-.3c.2-.3.3-.5.3-.5l-.2-1.1c0-.3,0-.5.1-.8.1.2.3.3.5.3s.3,0,.7-.1c0,0,0-.1,0-.3,0-.2.1-.3.3-.5.2-.6.5-1.2.8-1.7.2-.2.3-.4.3-.7h.2l.2-.3h.2c0-.2.2-.4.4-.6.3,0,.6-.4,1-.8,0,0,.1,0,.3,0s.1-.1.3-.4c.4-.1.6-.2.7-.2.1,0,.2,0,.3.2h.3c0,0,.2,0,.2,0h.2c.1.4.4.6.7.6h.1c0,.2.1.3.2.4h-.2c.4.3.6.7.6,1.5v.4c-.1,0,0,1,0,1l-.2.2-.4,1.1-.7.9v.5c-.9.7-1.6,1.2-2.2,1.5,0,.1-.1.2-.2.2s-.1,0-.3,0l-.8.6h-.5l-.7.3-.3-.2s-.3,0-.8-.1c-.4.3-.6.8-.6,1.4l-.3.3c0,.5-.1.8-.2.9h-.2c0,.1.2,1.4.2,1.4l-.2.2v.9c0,0,0,.3,0,.7,0,.4.2.6.3.6,0,.2,0,.4.3.6.3.3.6.4.9.5v.2h.9c0,.1,1.4.2,1.4.2h.9c.4-.4.7-.5.8-.6l.3-.4h.3v-.2c.6-.2.9-.3.9-.4,0,0,0-.1,0-.2,0-.1.2-.2.3-.2v-.2c.7,0,1-.4,1.1-1.1.1,0,.3-.1.4-.1M168.1,199.3s.3-.2.5-.5v-.4c.4-.5.6-.8.6-.9,0-.1,0-.3,0-.5s0-.6-.3-1.1l-.7-.3c-.2,0-.3,0-.4,0h-.2c-.2,0-.3,0-.4.3-.2,0-.5,0-1,.3v.3c-.1,0-.2,0-.3,0h-.1s0,0,0,0c0,0,0,0,0,0,0,0,0,0,0,.1,0,0,0,.1,0,.1,0,0,0,.1,0,.2,0,0,0,.2-.2.3l-.3.3-.5,1-.3.2s-.1.2-.2.5c0,.2-.4.8-1,1.7h.3c0,.1.1.5.1.5l.6.2c.3-.2.7-.4,1.1-.5v-.2c.1,0,.3,0,.4,0,.1,0,.2,0,.3-.2h.4c0,0,.3-.5.3-.5h.3l.2-.4c.3,0,.6-.1.9-.5v-.2h0Z"/>
        <path class="cls-4" d="M186.8,208.2l-.3.3s-.2.5-.5,1.1l-.5.4v.2h-.5l-.5.5h-.6l-.4.2s-.3,0-.4.2c-.1,0-.3-.1-.5-.1s-.3,0-.5.1v.2h-.7c0,0-.5,0-.5,0h-.5c0,0,0,0,0,0h-.2c0-.1-.3,0-.3,0h-.2c-.2,0-.3,0-.5,0h-.4c0-.1-.3,0-.3,0v-.2c-.1,0-.4.2-.4.2-.3-.2-.6-.3-.8-.3s-.2,0-.3.1c-.1,0-.4-.1-.6-.2h-.8c-.3,0-.5,0-.6,0h0c0-.1-.3,0-.3,0,0,0-.2-.1-.3-.1v-.2c-.9,0-1.2-.6-1.2-1.6h.8v-.7c.1,0,.3.2.3.2h.2v.2l.3-.2c.2,0,.3.1.3.3s0,.2-.1.3h.3v.6h.9c0,.1.3.5.3.5v-.2c.1,0,4.9-.3,4.9-.3l1.6-.3v-.2c0,0,.5,0,.5,0h.1c.6-.3,1.1-.5,1.5-.7h.1c0,.1,0,0,0,0l.3-.2h0c0-.1-.1-.4-.1-.4v-.3c0,0-.3-.3-.3-.3v-.3c-.3,0-.4-.1-.4-.2h-.2c0,0-.3-.3-.3-.3h-.1l-.2-.2h-.4c0-.2-.2-.3-.4-.3h-.3c-.4,0-.8,0-1.1-.3h-.4l-.5-.3h-.2c0,.1-.1,0-.1,0h-.3l-.4-.3-1.1-.5-.4-.4-1.2-.2h0c0-.1-1.1-.9-1.1-.9l-.5-1.2-.4-.6v-1.7c-.1,0,0-.2,0-.2,0-.5.1-.9.4-1.3.5-.3.7-.5.7-.8h.3c0-.3.3-.6.7-.9l.5-.4,2.2-.9,1.1-.2,1.1-.3h1.7c0,.1,0,.3,0,.3h.1c.2,0,.4,0,.5.2v.3l.5.3c-.1.6-.2.9-.2,1,0,.2-.1.3-.3.3s-.3-.3-.5-.8h-1c0,0-.3,0-.3,0-.4-.3-.6-.4-.7-.4,0,0-.1,0-.1.1l-.3.3c-.4,0-.7.1-1,.3-.5,0-.8.2-.9.5h-.4l-.3.2s-.3.1-.7.3v.2c-.1,0-.3.1-.3.1l-.5.5-.3.5c-.3.2-.5.4-.5.5l-.4,1.5h.2v.2c0,.4.2.8.6,1.1v.2l1,.6h.2l.5.5h.7l.5.4h.8c0,.1.3.3.3.3l1.6.5s0,.2.3.2c.3,0,.6,0,.8.2s.5.2.7.3v.2l.4.2h.7l.6.4c0,.3.2.5.5.7h0c0,.1.1.4.1.4h.3c0,0-.1.3-.1.3.2.2.4.4.4.6"/>
        <path class="cls-4" d="M202.9,208.2l-.3.3s-.2.5-.5,1.1l-.5.4v.2h-.5l-.5.5h-.6l-.4.2s-.3,0-.4.2c-.1,0-.3-.1-.5-.1s-.3,0-.5.1v.2h-.7c0,0-.5,0-.5,0h-.5c0,0,0,0,0,0h-.2c0-.1-.3,0-.3,0h-.2c-.2,0-.3,0-.5,0h-.4c0-.1-.3,0-.3,0v-.2c-.1,0-.4.2-.4.2-.3-.2-.6-.3-.8-.3s-.2,0-.3.1c-.1,0-.4-.1-.6-.2h-.8c-.3,0-.5,0-.6,0h0c0-.1-.3,0-.3,0,0,0-.2-.1-.3-.1v-.2c-.9,0-1.2-.6-1.2-1.6h.8v-.7c.1,0,.3.2.3.2h.2v.2l.3-.2c.2,0,.3.1.3.3s0,.2-.1.3h.3v.6h.9c0,.1.3.5.3.5v-.2c.1,0,4.9-.3,4.9-.3l1.6-.3v-.2c0,0,.5,0,.5,0h.1c.6-.3,1.1-.5,1.5-.7h.1c0,.1,0,0,0,0l.3-.2h0c0-.1-.1-.4-.1-.4v-.3c0,0-.3-.3-.3-.3v-.3c-.3,0-.4-.1-.4-.2h-.2c0,0-.3-.3-.3-.3h-.1l-.2-.2h-.4c0-.2-.2-.3-.4-.3h-.3c-.4,0-.8,0-1.1-.3h-.4l-.5-.3h-.2c0,.1-.1,0-.1,0h-.3l-.4-.3-1.1-.5-.4-.4-1.2-.2h0c0-.1-1.1-.9-1.1-.9l-.5-1.2-.4-.6v-1.7c-.1,0,0-.2,0-.2,0-.5.1-.9.4-1.3.5-.3.7-.5.7-.8h.3c0-.3.3-.6.7-.9l.5-.4,2.2-.9,1.1-.2,1.1-.3h1.7c0,.1,0,.3,0,.3h.1c.2,0,.4,0,.5.2v.3l.5.3c-.1.6-.2.9-.2,1,0,.2-.1.3-.3.3s-.3-.3-.5-.8h-1c0,0-.3,0-.3,0-.4-.3-.6-.4-.7-.4s-.1,0-.1.1l-.3.3c-.4,0-.7.1-1,.3-.5,0-.8.2-.9.5h-.4l-.3.2s-.3.1-.7.3v.2c-.1,0-.3.1-.3.1l-.5.5-.3.5c-.3.2-.5.4-.5.5l-.4,1.5h.2v.2c0,.4.2.8.6,1.1v.2l1,.6h.2l.5.5h.7l.5.4h.8c0,.1.3.3.3.3l1.6.5s0,.2.3.2c.3,0,.6,0,.8.2s.5.2.7.3v.2l.4.2h.7l.6.4c0,.3.2.5.5.7h0c0,.1.1.4.1.4h.3c0,0-.1.3-.1.3.2.2.4.4.4.6"/>
        <path class="cls-4" d="M259.1,204.6l-.7.4v.6c.1.3-.2.5-.8.5l-.3.8-1.2.8c-.2.3-.5.6-.7.9-.4,0-.7.1-1.1.4-.4.3-.6.5-.7.6-.1,0-.3.2-.4.3-.1,0-.3.1-.5.2-.2,0-.4.1-.7.3s-.5.3-.5.3h-.5c-.5,0-1.1.3-1.8.8h-.6c0-.1-.5,0-.5,0-.3.1-.5.2-.7.2s-.3,0-.5,0c-.2,0-.3,0-.4,0h0c-.2.1-.3.2-.5.2s-.3,0-.4-.2h-.6c0,0-.2,0-.4,0l-.5-.2h-.3c0,.1-.7-.2-.7-.2l-.3-.3s-.4-.2-.8-.3l-.2-.5c-.6-.2-.9-.3-.9-.3,0,0-.1-.2-.1-.4,0-.3-.1-.5-.3-.6-.1-.1-.3-.2-.3-.3,0-.1-.2-.3-.3-.5s-.2-.4-.3-.6c-.2-.3-.3-.5-.3-.7,0-.2-.1-.5-.1-.7h0c0-.1,0-1.2,0-1.2-.1-.3-.2-.5-.2-.8l.2-.6v-.6h.2c0-.1,0-.7,0-.7l.5-1.7.3-.8h.2v-.6c.2,0,.3-.3.3-.6,0-.4.2-.7.4-1s.4-.5.4-.6,0-.3-.1-.5h.4c.2-.5.5-.7.7-.9l.2-.8.5-.3v-.6c.7-.1,1-.3,1.2-.6.2-.3.4-.5.7-.6l.2-.2s.3-.2.8-.3h.1c0,0,.4-.4.4-.4l.3.3h.3c.4,0,.8-.2,1.2-.2h.7c0,.1.1.2.3.3l1.2.4,2.6,1.6c.1.3.3.6.5.8l.2.7c.2.5.3.9.3,1.1v.8c0,.3-.1.5-.1.8,0,0,0,0,0,0,0,0,0,.2-.3.4s-.3.3-.3.4h-.7c0,.1-.2,0-.2,0,0,0-.1-.1-.2-.2v-.2c-.1,0-.2-.2-.2-.3,0-.1,0-.3,0-.4v-1.2c-.1,0-.1-.9-.1-.9v-.7c-.3-.8-.9-1.3-1.6-1.5-.1,0-.2,0-.2-.1h0s0-.1-.1-.2c-.1,0-.2-.1-.2-.2h-.8l-.5-.4c-.4,0-.5,0-.5.2l-.3-.2-.3.3h-.5c0,0-.4.2-.4.2,0,0-.3,0-.5,0s-.4,0-.6.1l-.6.8-1,1-.8,1.2h-.3c0,.1-.3,1.1-.3,1.1l-.5.4v.5l-.6,1.1-.3,1.2h-.3v.7c.1,0-.2.7-.2.7v.3c.1,0,0,0,0,0v.5h-.1v2.6c.2.4.3.7.3.9l.3.3v.5l.3.4-.2.4.7.7v.3l1.2.5v.5c-.1,0,1.4.1,1.4.1l.5.5.8-.3.4.5.8-.3c.2-.2.4-.3.5-.3s.1,0,.1.1h.5l.3.2.6-.2h.2c.4,0,.6-.1.8-.3.1-.2.4-.3.8-.3s.3,0,.5,0c0-.3.3-.4.8-.4.2-.2.5-.4.9-.5.2,0,.5-.1,1.1-.4l.3-.5s.5-.2,1-.5l.4-.5.6-.3,2-2.1.7-.4.3.2v.2Z"/>
        <path class="cls-4" d="M271,207.8c.2.3.3.5.3.6s-.1.3-.3.6-.4.6-.5,1h-.3l-.4.8h-.5c0,0-1,.7-1,.7l-.2.4h-.3l-.3.3h-.5v.2h-.4c-.3,0-.5,0-.7.3l-.2-.2c-.3.1-.5.2-.6.2-.3,0-.5,0-.7-.2-.1,0-.3,0-.5,0l-.2-.2c-.7,0-1.1-.2-1.3-.6v-.5l-.6-.3v-.4c-.1,0-.3-.3-.5-.5v-.3l-.4-1.8v-1.2c0,0,.2-.7.2-.7v-.8l.2-.7v-.5c0,0,.1-.3.2-.4,0-.2.1-.3.2-.5,0-.2,0-.5-.1-.9l.3-.3-.3-.3c.2-.3.3-.5.3-.5l-.2-1.1c0-.3,0-.5.1-.8.1.2.3.3.5.3s.3,0,.7-.1c0,0,0-.1,0-.3,0-.2.1-.3.3-.5.2-.6.5-1.2.8-1.7.2-.2.3-.4.3-.7h.2l.2-.3h.2c0-.2.2-.4.4-.6.3,0,.6-.4,1-.8,0,0,.1,0,.3,0s.1-.1.3-.4c.4-.1.6-.2.7-.2.1,0,.2,0,.3.2h.3c0,0,.2,0,.2,0h.2c.1.4.4.6.7.6h.1c0,.2.1.3.2.4h-.2c.4.3.6.7.6,1.5v.4c-.1,0,0,1,0,1l-.2.2-.4,1.1-.7.9v.5c-.9.7-1.6,1.2-2.2,1.5,0,.1-.1.2-.2.2s-.1,0-.3,0l-.8.6h-.5l-.7.3-.3-.2s-.3,0-.8-.1c-.4.3-.6.8-.6,1.4l-.3.3c0,.5-.1.8-.2.9h-.2c0,.1.2,1.4.2,1.4l-.2.2v.9c0,0,0,.3,0,.7,0,.4.2.6.3.6,0,.2,0,.4.3.6.3.3.6.4.9.5v.2h.9c0,.1,1.4.2,1.4.2h.9c.4-.4.7-.5.8-.6l.3-.4h.3v-.2c.6-.2.9-.3.9-.4,0,0,0-.1,0-.2,0-.1.2-.2.3-.2v-.2c.7,0,1-.4,1.1-1.1.1,0,.3-.1.4-.1M268,199.3s.3-.2.5-.5v-.4c.4-.5.6-.8.6-.9,0-.1,0-.3,0-.5s0-.6-.3-1.1l-.7-.3c-.2,0-.3,0-.4,0h-.2c-.2,0-.3,0-.4.3-.2,0-.5,0-1,.3v.3c-.1,0-.2,0-.3,0h-.1s0,0,0,0c0,0,0,0,0,0,0,0,0,0,0,.1,0,0,0,.1,0,.1,0,0,0,.1,0,.2,0,0,0,.2-.2.3l-.3.3-.5,1-.3.2s-.1.2-.2.5c0,.2-.4.8-1,1.7h.3c0,.1.1.5.1.5l.6.2c.3-.2.7-.4,1.1-.5v-.2c.1,0,.3,0,.4,0,.1,0,.2,0,.3-.2h.4c0,0,.3-.5.3-.5h.3l.2-.4c.3,0,.6-.1.9-.5v-.2h0Z"/>
        <path class="cls-4" d="M295.7,205.5c0,.2-.1.4-.5.6h0c0,.1-.2.5-.5.9-.3.4-.5.7-.5.9h-.4c0,.6-.3.9-.7,1,0,.1,0,.2-.2.2h0c0,.2-.2.3-.4.3l-.2.4h-.5c0,.1-.4.4-.4.4,0,0-.1,0-.2,0h-.8c0,.1-.3.1-.3.1h-.4c0-.1-.3-.1-.3-.1l-.4-.6h-.2s-.1-.2-.1-.4c-.4-.4-.6-.8-.6-1v-.3l-.3-.5v-.2h.2c0-.1-.1-.6-.1-.6l-.3-.7v-1c0,0-.3-.6-.3-.6v-.9c-.3-1.8-.5-2.9-.5-3.3h0c0-.3,0-.5,0-.6s0-.2,0-.2c-.3-.4-.4-.8-.4-1l-.2-.2-.8.8-.4.5-1.3,1.6-.5.9c-.2.4-.3.7-.4.9-.1.2-.3.5-.7.8v.3c.1,0-.1.7-.1.7h-.3v.3h-.2l-.7.8c0,.4-.2.6-.5.7-.1.1-.2.4-.3.7s-.2.5-.4.5h-.1c-.2.5-.5.8-.6,1.1-.2.2-.5.5-.8.7,0,.4-.2.7-.5.7v.2c0,.2-.1.3-.2.5-.1.1-.4.3-.9.4-.2,0-.3-.2-.4-.6-.1-.4-.3-.6-.4-.7v-.2c-.1,0,.2-.5.2-.5v-.6c.1,0,0-.3,0-.3v-.5l-.3-.8.3-.5v-.5c0-.3.1-.8.1-1.5v-.2s0-.2-.2-.4c.2-.1.3-.3.3-.5v-.6c0,0,.1-1.4.1-1.4v-.3c-.1,0-.1-.6-.1-.6v-.3c-.1,0,0-1.2,0-1.2v-.4c0,0,0-.7,0-.7v-.9c-.1,0,.1-.5.1-.5.4.1.7.2.7.3,0,0,0,.2,0,.3s0,.5,0,.8l.3.5v.7c-.1,0,0,1.5,0,1.5l-.3.8v.9c.1,0,.1.5.1.5l-.3.5.2.8s-.2.5-.3,1l.2.4c-.2.7-.3,1.2-.3,1.4v1.5c.1,0,.6-.2.6-.2h.4l.2-.8c.3,0,.4-.2.5-.4,0-.3.2-.4.6-.4,0-.3.1-.5.3-.6.1,0,.2-.2.3-.5.3-.3.5-.5.6-.8v-.5h0s.2,0,.3-.3c.1-.2.3-.3.5-.3,0-.3.2-.5.3-.7l.5-.6.5-1c0-.2,0-.3,0-.4,0,0,0-.1.1-.1.5-.3.7-.6.7-.9v-.5c.4-.1.5-.3.5-.4s0-.1,0-.2c0,0,0-.1,0-.2,0-.1,0-.2.1-.2s.2,0,.3.1c.2-.7.5-1,.8-1s.2,0,.3,0c0-.3.1-.6.3-.8,0-.1.3-.3.9-.5l.2-.3h.1c.2.3.4.5.5.5v.3c0,0,.2,0,.2,0v.7c0,0,.5.3.5.3l-.2.6.3,1.2v1.1l.3,1.3v1.3c.1,0,.5,1.2.5,1.2v1.2c0,0,.1.1.3.3.1.2.2.5.3.8h.1v.7l.3.4v.3c0,0,.2.1.2.1v.2c.2.1.4.2.6.2s.4,0,.6-.1c0,0,.1,0,.2,0,.1,0,.2,0,.3-.3.3,0,.5-.1.5-.3h0c0,0,.3-.3.7-.5.1-.1.3-.3.4-.3h0c0,0,0-.2,0-.3,0,0,.2-.2.3-.3.2-.1.3-.3.3-.4l.2-.4c.1-.2.4-.6.7-1.1l.5-.3h.3v.5c.1,0,0,0,0,0Z"/>
        <path class="cls-4" d="M300.8,197.2h2.5c0,.1,2.4,0,2.4,0h2.2c.3,0,.4.1.4.3s-.2.4-.6.5c0,0-.2,0-.3,0s-.3,0-.5.2h-.5c0-.1-1-.1-1-.1-.5.3-.9.4-1.4.4h-.7c0-.1-.3.2-.3.2h-.3v-.2l-.6.3h-.3v.3c-.3,0-.7-.1-1.2-.1,0,.1-.1.2-.2.2s-.1,0-.2-.1h-.5c0,0-.3.4-.3.4v1.8c-.1,0,0,1.1,0,1.1v1.4c-.1,0-.1,1.6-.1,1.6v.7c.1,0,.1.7.1.7l.4.9v.2c0,.4.3.8.7,1.2v.3c.1,0,.8.1.8.1l.5.5,1.4.3,1.8-.4.5.2,1.3-.6h.5c.2.2.3.4.3.5s-.2.4-.5.6h-.3c0-.1-.6.4-.6.4h-1.2c0,.1-.4.4-.4.4l-.4-.3c-.4.2-.8.3-1.3.3h-.7c0-.1-.4-.1-.4-.1l-1.3-.8-.6-.9-.4-.5-.7-1.8-.3-1.6.2-.7-.3-.3v-.4c.1,0,0-.7,0-.7l.4-.3-.2-.3v-.4c0,0,0-.5,0-.5v-.7c0,0,0-.3,0-.3h.2v-1.4c0-.3-.2-.5-.3-.5s-.1,0-.2.1l-.4-.2h-.6c0,.1-.6-.3-.6-.3h-.3c-.3,0-.4-.2-.4-.5v-.6l-.2-.2v-.3c.1,0,.7,0,.7,0h.4c0,0,.6.1.6.1h1.6v-.8c0,0,0-.8,0-.8l-.3-.6.3-.2s0-.2,0-.3c0-.2-.1-.3-.3-.4v-1.4c0,0-.3-.5-.3-.5v-.3c-.2,0-.3-.1-.3-.3l.3-1c.2-.3.3-.4.3-.5.7.4,1.1.6,1.1.6h0v.4c0,.3.1.6.1.8h0c0,.3-.1.5-.1.6s0,.2.1.3v.7l-.3.5.2.9v1.1c-.1,0,0,.2,0,.2l-.2.3.3.9h.7l.5-.3h0Z"/>
        <path class="cls-4" d="M323,196.6v.5c-.1,0-1.2.1-1.2.1l-.7.5h-.5c0,0-.6.4-.6.4l-.6.3c-.3.3-.5.4-.7.5v.2l-.5.3-.4.6h-.4l-.2.6-.4.3c-.2.1-.3.2-.4.4l-.3.7c-.3.1-.4.5-.5,1h-.2c0,0,0,.2,0,.2l-.3.2-.3.6c-.3.4-.4.7-.4.8h-.3v.9s-.1.2-.2.4h0c0,.1-.4.3-.4.3v.3c0,.3-.1.7-.5,1.3l.2.5-.4.6c0,.3,0,.4,0,.6v.6c0,0,0,.7,0,.7,0,0,0,.1.2.2l.3.3c-.1.3-.3.5-.5.6l-.5-.2v.3c0,0-.7-.1-.7-.1v-.8c-.1,0,0-.6,0-.6v-.3c-.1,0,0-1.3,0-1.3v-.8c-.2,0-.3-.1-.3-.2,0-.1,0-.3.3-.5v-.5c0-.3,0-.5,0-.6v-.2c.1,0,0-.7,0-.7v-.6c.1,0,0-.3,0-.3v-1c.1,0,0-.3,0-.3v-.3c.1,0,0-.7,0-.7v-.6c0-.1,0-.4,0-.7v-.2c.1,0,0-1.3,0-1.3l-.3-.2.3-.6c-.3-.3-.4-.8-.4-1.2v-.5s-.2-.2-.2-.3c.2-.2.5-.4.9-.6h.3c0,.3.2.7.4.9v.9c0,0,.3,2.8.3,2.8,0,.2,0,.3-.2.5l.2.8v.6c-.1,0,0,.6,0,.6v.5c0,0,.2.6.2.6h-.1c0,.1.1,1,.1,1h.3c0,0,.1-.7.1-.7,0,0,.1-.3.4-.7.3-.3.5-.6.5-.9v-.2h.2c0-.1,0-.1,0-.3,0,0,0-.1.1-.1h.1l.2-.7.6-.4v-.2h.3v-.4c-.1,0,.4-.3.4-.3v-.5h.6c.3-.3.5-.5.5-.7h.3c0,0,.3-.4.7-.7,0,0,.1,0,.2-.1l.6-.3v-.3c.1,0,.5-.2.5-.2.6-.5,1.1-.7,1.3-.7h.1c.2,0,.4,0,.5-.2h.3c.2,0,.3,0,.4,0,.5,0,.7.2.7.2"/>
        <path class="cls-4" d="M334.1,207.8c.2.3.3.5.3.6s-.1.3-.3.6-.4.6-.5,1h-.3l-.4.8h-.5c0,0-1,.7-1,.7l-.2.4h-.3l-.3.3h-.5v.2h-.4c-.3,0-.5,0-.7.3l-.2-.2c-.3.1-.5.2-.6.2-.3,0-.5,0-.7-.2-.1,0-.3,0-.5,0l-.2-.2c-.7,0-1.1-.2-1.3-.6v-.5l-.6-.3v-.4c-.1,0-.3-.3-.5-.5v-.3l-.4-1.8v-1.2c0,0,.2-.7.2-.7v-.8l.2-.7v-.5c0,0,.1-.3.2-.4s.1-.3.2-.5c0-.2,0-.5-.1-.9l.3-.3-.3-.3c.2-.3.3-.5.3-.5l-.2-1.1c0-.3,0-.5.1-.8.1.2.3.3.5.3s.3,0,.7-.1c0,0,0-.1,0-.3,0-.2,0-.3.3-.5.2-.6.5-1.2.8-1.7.2-.2.3-.4.3-.7h.2l.2-.3h.2c0-.2.2-.4.4-.6.3,0,.6-.4,1-.8,0,0,.1,0,.3,0s.1-.1.3-.4c.4-.1.6-.2.7-.2.1,0,.2,0,.3.2h.3c0,0,.2,0,.2,0h.2c.1.4.4.6.7.6h.1c0,.2.1.3.2.4h-.2c.4.3.6.7.6,1.5v.4c-.1,0,0,1,0,1l-.2.2-.4,1.1-.7.9v.5c-.9.7-1.6,1.2-2.2,1.5,0,.1-.1.2-.2.2s-.1,0-.3,0l-.8.6h-.5l-.7.3-.3-.2s-.3,0-.7-.1c-.4.3-.6.8-.6,1.4l-.3.3c0,.5-.1.8-.2.9h-.2c0,.1.2,1.4.2,1.4l-.2.2v.9c0,0,0,.3,0,.7s.2.6.3.6c0,.2,0,.4.3.6.3.3.6.4.9.5v.2h.9c0,.1,1.4.2,1.4.2h.9c.4-.4.6-.5.8-.6l.3-.4h.3v-.2c.6-.2.9-.3.9-.4,0,0,0-.1,0-.2,0-.1.2-.2.3-.2v-.2c.7,0,1-.4,1.1-1.1.1,0,.3-.1.4-.1M331.1,199.3s.3-.2.5-.5v-.4c.4-.5.6-.8.6-.9,0-.1,0-.3,0-.5s0-.6-.3-1.1l-.7-.3c-.2,0-.3,0-.4,0h-.2c-.2,0-.3,0-.4.3-.2,0-.5,0-1,.3v.3c-.1,0-.2,0-.3,0h-.1s0,0,0,0c0,0,0,0,0,0s0,0,0,.1c0,0,0,.1,0,.1,0,0,0,.1,0,.2,0,0,0,.2-.2.3l-.3.3-.5,1-.3.2s-.1.2-.2.5c0,.2-.4.8-1,1.7h.3c0,.1.1.5.1.5l.6.2c.3-.2.7-.4,1.1-.5v-.2c.1,0,.3,0,.4,0,.1,0,.2,0,.3-.2h.4c0,0,.3-.5.3-.5h.3l.2-.4c.3,0,.6-.1.9-.5v-.2h0Z"/>
      </g>
    </g>
  </g>
</svg>