<?xml version="1.0" encoding="UTF-8"?>
<svg xmlns="http://www.w3.org/2000/svg" version="1.1" viewBox="0 0 1844.2 458.3">
  <defs>
    <style>
      .cls-1 {
        fill: #1c56a3;
      }
    </style>
  </defs>
  <!-- Generator: Adobe Illustrator 28.7.1, SVG Export Plug-In . SVG Version: 1.2.0 Build 142)  -->
  <g>
    <g id="Laag_1">
      <g id="Laag_1-2" data-name="Laag_1">
        <g id="Laag_1-2">
          <path class="cls-1" d="M558.5,338c-1.7,0-3.5,0-5.2-.1-32.9-1.3-59.2-8.2-78.3-20.4-21.5-14-32.4-34.1-32.4-59.7V123.8h79.4v121c0,18,9.7,26.6,30.5,26.9,8.8.2,15.6-2.4,20.7-7.7,5.2-5.4,7.8-11.9,7.8-19.9v-120.2h78.7v135.4c0,24.5-12.1,44.7-36.1,60-19.6,12.5-41.5,18.9-65.2,18.9h0v-.2h0ZM452.2,133.5v124.3c0,22.5,9.2,39.4,28.1,51.7,17.6,11.3,42.3,17.7,73.4,18.9,23.7.9,45.5-4.9,64.9-17.3,21.3-13.6,31.6-30.5,31.6-51.9v-125.7h-59.5v110.6c0,10.5-3.5,19.5-10.5,26.6-7,7.2-16.3,10.8-27.8,10.6-33.1-.5-40-20.1-40-36.5v-111.3h-60.2Z"/>
          <path class="cls-1" d="M907.7,331.5h-79.5v-119.1c0-10.6-2.4-18.3-7.2-22.9-4.3-4.3-11.1-6.3-20-6.1-8.4.2-15.3,3.1-21.2,9s-8.8,12.9-8.8,21.2v117.8h-80.2V123.4h80.9v19.7l3.8-3.8c13.5-13.7,31.1-20.6,52.4-20.6s7.7.2,12.1.5c20.4,1.7,37.1,10.4,49.7,25.8,11.9,14.4,17.9,32.1,17.9,52.5v134.2h0v-.2h0ZM837.9,321.8h60.2v-124.6c0-18.1-5.3-33.7-15.7-46.4-11.1-13.5-25.2-20.8-43-22.3-4.1-.3-8-.4-11.4-.4-18.9,0-33.7,5.8-45.5,17.8l-20.2,20.6v-33.6h-61.7v188.9h60.9v-108.2c0-10.9,3.9-20.3,11.6-28,7.6-7.7,17-11.7,27.8-11.9,11.6-.2,20.6,2.7,26.9,8.8,6.7,6.5,10.1,16.6,10.1,29.8v109.4h0Z"/>
          <path class="cls-1" d="M1033.5,331.4h-80.2V123.8h80.2v207.6h0ZM962.9,321.8h60.9v-188.4h-60.9v188.4Z"/>
          <path class="cls-1" d="M1305.6,426.2h-78.5v-110.6c-15.9,12.2-34.3,19-54.7,20.1-28,1.6-52.7-8.5-73.1-29.8-19.6-20.5-30.2-45.5-31.6-74.4-1.3-29.6,7.8-56.3,27.2-79.2,20-23.8,44.7-35.8,73.6-35.8s6.1.2,9.2.5c18.3,1.8,34.9,9.1,49.4,21.6v-14.9h78.5v302.4h0ZM1236.8,416.6h59.3V133.4h-59.3v28.7l-8.3-8.8c-14.7-15.7-32.1-24.6-51.8-26.6-2.8-.3-5.5-.5-8.1-.5-26.2,0-47.8,10.6-66.2,32.4-17.8,21-26.2,45.4-24.9,72.5,1.2,26.5,10.9,49.4,28.9,68.2,18.4,19.2,40.5,28.2,65.6,26.9,21.6-1.2,40.7-9.4,56.7-24.4l8.1-7.6v122.4h0ZM1188.4,275.3h-.7c-13.8-.2-25.7-5.6-35.3-16.1-9.6-10.5-14-22.8-13.1-36.6.7-13.1,6-24.3,15.6-33.3s21.2-13.6,34.4-13.3c13.8.2,25.7,5.6,35.4,16,9.7,10.4,14.1,22.7,13.3,36.8-.7,13.1-6,24.3-15.8,33.3-9.6,8.8-20.9,13.3-33.7,13.3h-.1ZM1188.6,185.5c-10.6,0-19.4,3.5-27.1,10.7-7.9,7.3-12,16.1-12.6,26.8-.7,11.3,2.8,21,10.6,29.6,7.9,8.6,17.1,12.9,28.3,13,10.6.3,19.7-3.4,27.8-10.8,8-7.4,12.2-16.1,12.7-26.8h0c.7-11.5-2.8-21.2-10.7-29.7-7.9-8.5-17.2-12.8-28.5-12.9h-.6,0Z"/>
          <path class="cls-1" d="M992,108.6h-.7c-13.8-.2-25.7-5.6-35.3-16.1s-14-22.8-13.1-36.6c.7-13.1,6-24.3,15.6-33.3s21.2-13.6,34.4-13.3c13.8.2,25.7,5.6,35.4,16,9.7,10.4,14.1,22.7,13.3,36.8-.7,13.1-6,24.3-15.8,33.3-9.6,8.8-20.9,13.3-33.7,13.3h-.1ZM992.1,18.8c-10.6,0-19.4,3.5-27.1,10.7-7.9,7.3-12,16.1-12.6,26.8-.7,11.3,2.8,21,10.6,29.6,7.9,8.6,17.1,12.9,28.3,13,10.6.3,19.7-3.4,27.8-10.8,8-7.4,12.2-16.1,12.7-26.8h0c.7-11.5-2.8-21.2-10.7-29.7-7.9-8.5-17.2-12.8-28.5-12.9h-.6.1Z"/>
          <path class="cls-1" d="M1459.4,338c-1.7,0-3.5,0-5.2-.1-32.9-1.3-59.2-8.2-78.2-20.4-21.5-14-32.5-34.1-32.5-59.7V123.8h79.5v121c0,18,9.7,26.6,30.5,26.9,8.7.1,15.6-2.4,20.7-7.7,5.2-5.4,7.8-11.9,7.8-19.9v-120.2h78.7v135.4c0,24.5-12.1,44.7-36,60-19.6,12.5-41.6,18.9-65.3,18.9h0v-.2h0ZM1353.1,133.5v124.3c0,22.5,9.2,39.4,28.1,51.7,17.6,11.3,42.3,17.7,73.4,18.9,23.6.9,45.5-4.9,64.9-17.3,21.3-13.6,31.6-30.5,31.6-51.9v-125.7h-59.5v110.6c0,10.5-3.5,19.5-10.5,26.6-7,7.2-16.4,10.8-27.8,10.6-33.1-.5-40-20.1-40-36.5v-111.3h-60.2Z"/>
          <path class="cls-1" d="M1703.8,338.9c-32.7,0-60-10.6-81.4-31.4-21.3-20.8-32.2-47.5-32.2-79.3s11.1-56.6,32.9-77.9c21.8-21.4,48.9-32.2,80.4-32.2s52.3,8.3,73.7,24.7c23.6,18,36.1,41,36.9,68.5l1.1,34.5h-144.4c.4,8.6,3.3,16,8.8,22.6,6.8,8.2,15.7,12.2,27.3,12.2s25.2-5.5,32.5-16.8l1.4-2.2h74.5l-8.4,21c-7.3,18-20.2,32-38.3,41.8-17.8,9.6-39.6,14.5-64.8,14.5h0ZM1703.5,127.7c-28.9,0-53.7,9.9-73.7,29.5-19.9,19.5-30,43.4-30,71.1s9.8,53.4,29.3,72.4,44.6,28.6,74.6,28.6,43.8-4.5,60.2-13.4c16.4-8.8,27.5-20.9,34-36.9l3.1-7.8h-55.2c-9,12.6-22.2,18.9-39,18.9s-26.1-5.3-34.7-15.7c-8-9.6-11.7-20.9-10.9-33.8l.2-4.5h143.8l-.8-24.5c-.8-24.8-11.6-44.8-33.2-61.1-19.7-15.1-42.6-22.8-67.9-22.8h.2ZM1752.7,204.3h-91.6l1.5-6c5.6-22,20.7-33.6,43.5-33.6s37,11.2,44.4,33.3l2.1,6.3h0ZM1673.9,194.6h65c-6.5-13.7-17.3-20.4-32.7-20.4s-26.9,6.7-32.3,20.4h0Z"/>
          <path class="cls-1" d="M213.1,405.9c-101.2,0-183.4-82.3-183.4-183.4S112,39,213.1,39s183.5,82.3,183.5,183.4-82.3,183.4-183.5,183.4h0ZM213.1,45.3c-97.7,0-177.1,79.5-177.1,177.2s79.5,177.2,177.1,177.2,177.2-79.5,177.2-177.1S310.8,45.3,213.1,45.3Z"/>
          <path class="cls-1" d="M22.6,374.9s205-195,255.5-160c40.1,27.8,3.4,120,3.1,120.6l-29.7-5s29.1-66.3,6.9-84.5c-36.8-30.1-235.8,128.9-235.8,128.9"/>
          <path class="cls-1" d="M104.4,144.8s-2.6-23.8,19.6-31.6c37.2-13.1,146.4,72.6,160.6,54.8,6.4-16-.8-38.4-.8-38.4l21.7-2s16.8,69-8.6,72.1c-37.5,4.6-138.3-81.4-167.3-76.2-23.5,4.2-25.2,21.3-25.2,21.3"/>
          <path class="cls-1" d="M219.6,78.6l30-9.4c6.3,10.7,2.3,53.3-5.5,59.2l-16-8.2c8-15.1-8.6-41.5-8.6-41.5"/>
          <g>
            <path class="cls-1" d="M279.9,212.3C227.9,176.3,28.9,364.6,20.4,372.6l4.1,4.8c54.8-43.8,203.3-152.3,231.9-128.9,16.6,13.6,0,62.9-7.8,80.8l-1.6,3.7,36,6.1,1-2.1c0-.2,9.6-23.9,13.9-51,5.8-36.5-.3-61.3-18-73.6h0Z"/>
            <path class="cls-1" d="M308.5,126.9l-.6-2.7-28.3,2.6,1.2,3.7c0,.2,6.7,21.1,1.1,35.8-5.8,5.5-36.3-10.5-61-23.4-36-18.8-76.8-40.2-97.9-32.7-24.2,8.6-21.7,34.6-21.7,34.9l3.4,30.7,2.9-30.8c0-.2,1.6-14.8,22.6-18.5,12.7-2.2,43.7,16.5,73.7,34.7,33.9,20.6,68.9,41.8,90.1,41.8s2.3,0,3.4-.2c4.6-.6,8.3-2.9,11.1-6.9,12.4-18,.7-67,.2-69.1h-.2Z"/>
            <path class="cls-1" d="M225.4,118.6l-1.5,2.8,20.6,10.5,1.6-1.2c9.8-7.4,12.7-52.3,6.3-63.3l-1.3-2.2-36.3,11.4,2.2,3.5c4.4,6.9,14.4,27.3,8.5,38.4h-.1Z"/>
          </g>
        </g>
      </g>
    </g>
  </g>
</svg>